<svg width="487" height="67" viewBox="0 0 487 67" fill="none" xmlns="http://www.w3.org/2000/svg">
<path d="M269.945 65V25H284.945C288.018 25 290.596 25.5729 292.68 26.7187C294.776 27.8646 296.358 29.4401 297.426 31.4453C298.507 33.4375 299.047 35.7031 299.047 38.2422C299.047 40.8073 298.507 43.0859 297.426 45.0781C296.345 47.0703 294.75 48.6393 292.641 49.7852C290.531 50.918 287.934 51.4844 284.848 51.4844H274.906V45.5273H283.871C285.668 45.5273 287.139 45.2148 288.285 44.5898C289.431 43.9648 290.277 43.1055 290.824 42.0117C291.384 40.918 291.664 39.6615 291.664 38.2422C291.664 36.8229 291.384 35.5729 290.824 34.4922C290.277 33.4115 289.424 32.5716 288.266 31.9727C287.12 31.3607 285.642 31.0547 283.832 31.0547H277.191V65H269.945Z" fill="#0768A5"/>
<path d="M305.341 65V25H320.341C323.414 25 325.992 25.5339 328.075 26.6016C330.172 27.6693 331.754 29.1667 332.821 31.0937C333.902 33.0078 334.442 35.2409 334.442 37.793C334.442 40.3581 333.896 42.5846 332.802 44.4727C331.721 46.3477 330.126 47.7995 328.017 48.8281C325.907 49.8437 323.316 50.3516 320.243 50.3516H309.56V44.3359H319.267C321.063 44.3359 322.535 44.0885 323.681 43.5938C324.826 43.0859 325.673 42.3503 326.22 41.3867C326.78 40.4102 327.06 39.2122 327.06 37.793C327.06 36.3737 326.78 35.1628 326.22 34.1602C325.66 33.1445 324.807 32.3763 323.661 31.8555C322.515 31.3216 321.037 31.0547 319.228 31.0547H312.587V65H305.341ZM326.005 46.875L335.907 65H327.821L318.095 46.875H326.005Z" fill="#0768A5"/>
<path d="M382.04 65V25H407.665V31.0742H389.286V41.9336H405.907V48.0078H389.286V65H382.04Z" fill="#0768A5"/>
<path d="M421.513 25V65H414.267V25H421.513Z" fill="#0768A5"/>
<path d="M429.359 65V25H436.605V58.9258H454.223V65H429.359Z" fill="#0768A5"/>
<path d="M460.512 65V25H486.527V31.0742H467.758V41.9336H485.18V48.0078H467.758V58.9258H486.684V65H460.512Z" fill="#0768A5"/>
<path d="M23.6836 35.9961C23.5013 34.2904 22.7331 32.9622 21.3789 32.0117C20.0378 31.0612 18.293 30.5859 16.1445 30.5859C14.6341 30.5859 13.3385 30.8138 12.2578 31.2695C11.1771 31.7253 10.3503 32.3437 9.77734 33.125C9.20443 33.9062 8.91146 34.7982 8.89844 35.8008C8.89844 36.6341 9.08724 37.3568 9.46484 37.9688C9.85547 38.5807 10.3828 39.1016 11.0469 39.5312C11.7109 39.9479 12.4466 40.2995 13.2539 40.5859C14.0612 40.8724 14.875 41.1133 15.6953 41.3086L19.4453 42.2461C20.9557 42.5977 22.4076 43.0729 23.8008 43.6719C25.207 44.2708 26.4635 45.026 27.5703 45.9375C28.6901 46.849 29.5755 47.9492 30.2266 49.2383C30.8776 50.5273 31.2031 52.0378 31.2031 53.7695C31.2031 56.1133 30.6042 58.1771 29.4063 59.9609C28.2083 61.7318 26.4766 63.1185 24.2109 64.1211C21.9583 65.1107 19.2305 65.6055 16.0273 65.6055C12.9154 65.6055 10.2135 65.1237 7.92188 64.1602C5.64323 63.1966 3.85938 61.7904 2.57031 59.9414C1.29427 58.0924 0.604167 55.8398 0.5 53.1836H7.62891C7.73307 54.5768 8.16276 55.7357 8.91797 56.6602C9.67318 57.5846 10.6563 58.2747 11.8672 58.7305C13.0911 59.1862 14.4583 59.4141 15.9688 59.4141C17.5443 59.4141 18.9245 59.1797 20.1094 58.7109C21.3073 58.2292 22.2448 57.5651 22.9219 56.7188C23.599 55.8594 23.944 54.8568 23.957 53.7109C23.944 52.6693 23.638 51.8099 23.0391 51.1328C22.4401 50.4427 21.6003 49.8698 20.5195 49.4141C19.4518 48.9453 18.2018 48.5286 16.7695 48.1641L12.2188 46.9922C8.92448 46.1458 6.32031 44.8633 4.40625 43.1445C2.50521 41.4128 1.55469 39.1146 1.55469 36.25C1.55469 33.8932 2.19271 31.8294 3.46875 30.0586C4.75781 28.2878 6.50911 26.9141 8.72266 25.9375C10.9362 24.9479 13.4427 24.4531 16.2422 24.4531C19.0807 24.4531 21.5677 24.9479 23.7031 25.9375C25.8516 26.9141 27.5378 28.2747 28.7617 30.0195C29.9857 31.7513 30.6172 33.7435 30.6562 35.9961H23.6836Z" fill="#333B42"/>
<path d="M37.6631 65V25H63.6787V31.0742H44.9092V41.9336H62.3311V48.0078H44.9092V58.9258H63.835V65H37.6631Z" fill="#333B42"/>
<path d="M76.4229 25L86.833 56.4844H87.2432L97.6338 25H105.603L91.501 65H82.5557L68.4736 25H76.4229Z" fill="#333B42"/>
<path d="M110.871 65V25H136.887V31.0742H118.117V41.9336H135.539V48.0078H118.117V58.9258H137.043V65H110.871Z" fill="#333B42"/>
<path d="M144.279 65V25H170.295V31.0742H151.525V41.9336H168.947V48.0078H151.525V58.9258H170.451V65H144.279Z" fill="#333B42"/>
<path d="M210.559 25V65H204.113L185.266 37.7539H184.934V65H177.688V25H184.172L203 52.2656H203.352V25H210.559Z" fill="#333B42"/>
<path d="M224.138 25V28.9844C224.138 30.1302 223.916 31.3216 223.474 32.5586C223.044 33.7826 222.451 34.9544 221.696 36.0742C220.941 37.181 220.082 38.1315 219.118 38.9258L215.837 36.7969C216.553 35.7161 217.178 34.5508 217.712 33.3008C218.246 32.0378 218.513 30.612 218.513 29.0234V25H224.138Z" fill="#333B42"/>
<path d="M251.955 35.9961C251.773 34.2904 251.005 32.9622 249.65 32.0117C248.309 31.0612 246.564 30.5859 244.416 30.5859C242.906 30.5859 241.61 30.8138 240.529 31.2695C239.449 31.7253 238.622 32.3437 238.049 33.125C237.476 33.9062 237.183 34.7982 237.17 35.8008C237.17 36.6341 237.359 37.3568 237.736 37.9688C238.127 38.5807 238.654 39.1016 239.318 39.5312C239.982 39.9479 240.718 40.2995 241.525 40.5859C242.333 40.8724 243.146 41.1133 243.967 41.3086L247.717 42.2461C249.227 42.5977 250.679 43.0729 252.072 43.6719C253.479 44.2708 254.735 45.026 255.842 45.9375C256.962 46.849 257.847 47.9492 258.498 49.2383C259.149 50.5273 259.475 52.0378 259.475 53.7695C259.475 56.1133 258.876 58.1771 257.678 59.9609C256.48 61.7318 254.748 63.1185 252.482 64.1211C250.23 65.1107 247.502 65.6055 244.299 65.6055C241.187 65.6055 238.485 65.1237 236.193 64.1602C233.915 63.1966 232.131 61.7904 230.842 59.9414C229.566 58.0924 228.876 55.8398 228.771 53.1836H235.9C236.005 54.5768 236.434 55.7357 237.189 56.6602C237.945 57.5846 238.928 58.2747 240.139 58.7305C241.363 59.1862 242.73 59.4141 244.24 59.4141C245.816 59.4141 247.196 59.1797 248.381 58.7109C249.579 58.2292 250.516 57.5651 251.193 56.7188C251.87 55.8594 252.215 54.8568 252.229 53.7109C252.215 52.6693 251.91 51.8099 251.311 51.1328C250.712 50.4427 249.872 49.8698 248.791 49.4141C247.723 48.9453 246.473 48.5286 245.041 48.1641L240.49 46.9922C237.196 46.1458 234.592 44.8633 232.678 43.1445C230.777 41.4128 229.826 39.1146 229.826 36.25C229.826 33.8932 230.464 31.8294 231.74 30.0586C233.029 28.2878 234.781 26.9141 236.994 25.9375C239.208 24.9479 241.714 24.4531 244.514 24.4531C247.352 24.4531 249.839 24.9479 251.975 25.9375C254.123 26.9141 255.809 28.2747 257.033 30.0195C258.257 31.7513 258.889 33.7435 258.928 35.9961H251.955Z" fill="#333B42"/>
<path d="M377 45.5C377 49.86 376.206 53.6545 374.618 56.8836C373.03 60.099 370.844 62.5924 368.058 64.3636C365.286 66.1212 362.097 67 358.49 67C354.882 67 351.686 66.1212 348.9 64.3636C346.128 62.5924 343.949 60.099 342.361 56.8836C340.787 53.6545 340 49.86 340 45.5C340 41.1401 340.787 37.3523 342.361 34.1369C343.949 30.9078 346.135 28.4144 348.921 26.6568C351.707 24.8856 354.896 24 358.49 24C362.097 24 365.286 24.8856 368.058 26.6568C370.844 28.4144 373.03 30.9078 374.618 34.1369C376.206 37.3523 377 41.1401 377 45.5ZM373.198 45.5C373.198 41.7532 372.557 38.5445 371.276 35.8741C369.994 33.19 368.246 31.1394 366.032 29.7224C363.817 28.3054 361.303 27.597 358.49 27.597C355.69 27.597 353.183 28.3054 350.968 29.7224C348.754 31.1394 346.999 33.1831 345.704 35.8536C344.422 38.5241 343.781 41.7395 343.781 45.5C343.781 49.2468 344.422 52.4555 345.704 55.1259C346.985 57.7964 348.733 59.847 350.947 61.2776C353.162 62.6946 355.676 63.403 358.49 63.403C361.303 63.403 363.817 62.6946 366.032 61.2776C368.26 59.8606 370.015 57.8169 371.296 55.1464C372.578 52.4623 373.212 49.2468 373.198 45.5Z" fill="#0768A5"/>
<path d="M355.85 41.8485C355.85 44.1662 353.93 46.045 351.56 46.045C349.191 46.045 347.27 44.1662 347.27 41.8485C347.27 39.5309 349.191 37.6521 351.56 37.6521C353.93 37.6521 355.85 39.5309 355.85 41.8485Z" fill="#D9D9D9"/>
<path d="M354.012 41.9684C354.012 43.2928 352.914 44.3664 351.56 44.3664C350.206 44.3664 349.109 43.2928 349.109 41.9684C349.109 40.6441 350.206 39.5705 351.56 39.5705C352.914 39.5705 354.012 40.6441 354.012 41.9684Z" fill="#3B4853"/>
<path d="M369.333 41.8485C369.333 44.1662 367.412 46.045 365.043 46.045C362.674 46.045 360.753 44.1662 360.753 41.8485C360.753 39.5309 362.674 37.6521 365.043 37.6521C367.412 37.6521 369.333 39.5309 369.333 41.8485Z" fill="#D9D9D9"/>
<path d="M367.494 41.9684C367.494 43.2928 366.397 44.3664 365.043 44.3664C363.689 44.3664 362.591 43.2928 362.591 41.9684C362.591 40.6441 363.689 39.5705 365.043 39.5705C366.397 39.5705 367.494 40.6441 367.494 41.9684Z" fill="#3B4853"/>
<path d="M358.302 50.8409L356.179 47.244H360.424L358.302 50.8409Z" fill="#3B4853"/>
<path d="M10.669 23L4.6179 1.18182H8.08026L12.331 18.0781H12.5334L16.9545 1.18182H20.3849L24.8061 18.0888H25.0085L29.2486 1.18182H32.7216L26.6598 23H23.3466L18.755 6.65767H18.5845L13.9929 23H10.669Z" fill="#167FC0"/>
<path d="M35.7232 23V1.18182H49.4022V4.01562H39.0151V10.6634H48.6884V13.4865H39.0151V20.1662H49.53V23H35.7232Z" fill="#167FC0"/>
<path d="M53.7994 23V1.18182H57.0913V20.1662H66.9776V23H53.7994Z" fill="#167FC0"/>
<path d="M88.0048 8.27699H84.6809C84.5531 7.56676 84.3152 6.94176 83.9672 6.40199C83.6191 5.86222 83.193 5.40412 82.6887 5.0277C82.1845 4.65128 81.6199 4.36719 80.9949 4.17543C80.377 3.98366 79.72 3.88778 79.024 3.88778C77.7669 3.88778 76.6412 4.20384 75.6468 4.83594C74.6596 5.46804 73.8784 6.39489 73.3031 7.61648C72.7349 8.83807 72.4508 10.3295 72.4508 12.0909C72.4508 13.8665 72.7349 15.3651 73.3031 16.5866C73.8784 17.8082 74.6632 18.7315 75.6575 19.3565C76.6518 19.9815 77.7704 20.294 79.0133 20.294C79.7022 20.294 80.3556 20.2017 80.9735 20.017C81.5985 19.8253 82.1632 19.5447 82.6674 19.1754C83.1717 18.8061 83.5978 18.3551 83.9458 17.8224C84.301 17.2827 84.546 16.6648 84.6809 15.9688L88.0048 15.9794C87.8272 17.0518 87.4828 18.0391 86.9714 18.9411C86.4672 19.8359 85.8173 20.6101 85.0218 21.2635C84.2335 21.9098 83.3315 22.4105 82.3159 22.7656C81.3002 23.1207 80.1923 23.2983 78.992 23.2983C77.1028 23.2983 75.4196 22.8509 73.9423 21.956C72.465 21.054 71.3002 19.7649 70.448 18.0888C69.6028 16.4126 69.1802 14.4134 69.1802 12.0909C69.1802 9.76136 69.6064 7.76207 70.4586 6.09304C71.3109 4.4169 72.4757 3.13139 73.9529 2.23651C75.4302 1.33452 77.1099 0.883522 78.992 0.883522C80.1497 0.883522 81.2292 1.05043 82.2306 1.38423C83.2392 1.71094 84.1447 2.19389 84.9473 2.8331C85.7498 3.4652 86.4139 4.23935 86.9395 5.15554C87.465 6.06463 87.8201 7.10511 88.0048 8.27699Z" fill="#167FC0"/>
<path d="M110.896 12.0909C110.896 14.4205 110.47 16.4233 109.618 18.0994C108.766 19.7685 107.597 21.054 106.113 21.956C104.636 22.8509 102.956 23.2983 101.074 23.2983C99.1847 23.2983 97.4979 22.8509 96.0135 21.956C94.5362 21.054 93.3714 19.7649 92.5192 18.0888C91.6669 16.4126 91.2408 14.4134 91.2408 12.0909C91.2408 9.76136 91.6669 7.76207 92.5192 6.09304C93.3714 4.4169 94.5362 3.13139 96.0135 2.23651C97.4979 1.33452 99.1847 0.883522 101.074 0.883522C102.956 0.883522 104.636 1.33452 106.113 2.23651C107.597 3.13139 108.766 4.4169 109.618 6.09304C110.47 7.76207 110.896 9.76136 110.896 12.0909ZM107.636 12.0909C107.636 10.3153 107.349 8.82031 106.773 7.60582C106.205 6.38423 105.424 5.46094 104.43 4.83594C103.442 4.20384 102.324 3.88778 101.074 3.88778C99.8168 3.88778 98.6946 4.20384 97.7074 4.83594C96.7202 5.46094 95.9389 6.38423 95.3636 7.60582C94.7955 8.82031 94.5114 10.3153 94.5114 12.0909C94.5114 13.8665 94.7955 15.3651 95.3636 16.5866C95.9389 17.8011 96.7202 18.7244 97.7074 19.3565C98.6946 19.9815 99.8168 20.294 101.074 20.294C102.324 20.294 103.442 19.9815 104.43 19.3565C105.424 18.7244 106.205 17.8011 106.773 16.5866C107.349 15.3651 107.636 13.8665 107.636 12.0909Z" fill="#167FC0"/>
<path d="M115.001 1.18182H118.996L125.942 18.142H126.197L133.143 1.18182H137.138V23H134.006V7.21165H133.804L127.369 22.968H124.77L118.335 7.20099H118.133V23H115.001V1.18182Z" fill="#167FC0"/>
<path d="M141.924 23V1.18182H155.603V4.01562H145.216V10.6634H154.89V13.4865H145.216V20.1662H155.731V23H141.924Z" fill="#167FC0"/>
<path d="M166.864 4.01562V1.18182H183.75V4.01562H176.942V23H173.661V4.01562H166.864Z" fill="#167FC0"/>
<path d="M205.496 12.0909C205.496 14.4205 205.07 16.4233 204.218 18.0994C203.365 19.7685 202.197 21.054 200.713 21.956C199.235 22.8509 197.556 23.2983 195.673 23.2983C193.784 23.2983 192.097 22.8509 190.613 21.956C189.136 21.054 187.971 19.7649 187.119 18.0888C186.267 16.4126 185.84 14.4134 185.84 12.0909C185.84 9.76136 186.267 7.76207 187.119 6.09304C187.971 4.4169 189.136 3.13139 190.613 2.23651C192.097 1.33452 193.784 0.883522 195.673 0.883522C197.556 0.883522 199.235 1.33452 200.713 2.23651C202.197 3.13139 203.365 4.4169 204.218 6.09304C205.07 7.76207 205.496 9.76136 205.496 12.0909ZM202.236 12.0909C202.236 10.3153 201.948 8.82031 201.373 7.60582C200.805 6.38423 200.024 5.46094 199.029 4.83594C198.042 4.20384 196.923 3.88778 195.673 3.88778C194.416 3.88778 193.294 4.20384 192.307 4.83594C191.32 5.46094 190.539 6.38423 189.963 7.60582C189.395 8.82031 189.111 10.3153 189.111 12.0909C189.111 13.8665 189.395 15.3651 189.963 16.5866C190.539 17.8011 191.32 18.7244 192.307 19.3565C193.294 19.9815 194.416 20.294 195.673 20.294C196.923 20.294 198.042 19.9815 199.029 19.3565C200.024 18.7244 200.805 17.8011 201.373 16.5866C201.948 15.3651 202.236 13.8665 202.236 12.0909Z" fill="#167FC0"/>
</svg>
